<svg width="81" height="82" viewBox="0 0 81 82" fill="none" xmlns="http://www.w3.org/2000/svg">
<path d="M78.5728 64.0897L66.218 51.5463C63.7572 49.0582 59.682 49.1338 57.1354 51.7199L50.911 58.0372C50.5178 57.8172 50.1107 57.5873 49.6828 57.3435C45.7522 55.1326 40.3724 52.1023 34.7114 46.3513C29.0335 40.5881 26.0457 35.1185 23.8611 31.1257C23.6306 30.7027 23.4097 30.2949 23.1916 29.9076L27.3691 25.6731L29.4229 23.5856C31.9734 20.9958 32.0437 16.86 29.5886 14.3647L17.2338 1.81997C14.7788 -0.671857 10.7017 -0.596262 8.15124 1.99355L4.66925 5.5486L4.7644 5.6445C3.59684 7.15685 2.6212 8.90113 1.89515 10.7821C1.22587 12.5726 0.809182 14.2812 0.618649 15.9933C-1.01272 29.7226 5.16753 42.2701 21.9399 59.2969C45.1245 82.8311 63.8082 81.0532 64.6142 80.9664C66.3697 80.7534 68.0521 80.3276 69.7618 79.6535C71.5987 78.9251 73.3157 77.9361 74.8046 76.7534L74.8807 76.822L78.4082 73.3155C80.9534 70.7261 81.0267 66.5889 78.5728 64.0897Z" fill="white"/>
</svg>
